<svg width="48" height="50" viewBox="0 0 48 50" fill="none" xmlns="http://www.w3.org/2000/svg">
<path d="M43.7842 14.5771V37.4219L24 48.8447L4.21582 37.4219V14.5771L24 3.1543L43.7842 14.5771Z" stroke="#64FFDA" stroke-width="2"/>
<path d="M30.8182 22.4545L28.4091 23.1364C28.2576 22.7348 28.0341 22.3447 27.7386 21.9659C27.4508 21.5795 27.0568 21.2614 26.5568 21.0114C26.0568 20.7614 25.4167 20.6364 24.6364 20.6364C23.5682 20.6364 22.678 20.8826 21.9659 21.375C21.2614 21.8598 20.9091 22.4773 20.9091 23.2273C20.9091 23.8939 21.1515 24.4205 21.6364 24.8068C22.1212 25.1932 22.8788 25.5152 23.9091 25.7727L26.5 26.4091C28.0606 26.7879 29.2235 27.3674 29.9886 28.1477C30.7538 28.9205 31.1364 29.9167 31.1364 31.1364C31.1364 32.1364 30.8485 33.0303 30.2727 33.8182C29.7045 34.6061 28.9091 35.2273 27.8864 35.6818C26.8636 36.1364 25.6742 36.3636 24.3182 36.3636C22.5379 36.3636 21.0644 35.9773 19.8977 35.2045C18.7311 34.4318 17.9924 33.303 17.6818 31.8182L20.2273 31.1818C20.4697 32.1212 20.928 32.8258 21.6023 33.2955C22.2841 33.7652 23.1742 34 24.2727 34C25.5227 34 26.5152 33.7348 27.25 33.2045C27.9924 32.6667 28.3636 32.0227 28.3636 31.2727C28.3636 30.6667 28.1515 30.1591 27.7273 29.75C27.303 29.3333 26.6515 29.0227 25.7727 28.8182L22.8636 28.1364C21.2652 27.7576 20.0909 27.1705 19.3409 26.375C18.5985 25.572 18.2273 24.5682 18.2273 23.3636C18.2273 22.3788 18.5038 21.5076 19.0568 20.75C19.6174 19.9924 20.3788 19.3977 21.3409 18.9659C22.3106 18.5341 23.4091 18.3182 24.6364 18.3182C26.3636 18.3182 27.7197 18.697 28.7045 19.4545C29.697 20.2121 30.4015 21.2121 30.8182 22.4545Z" fill="#64FFDA"/>
</svg>
